<svg width="134" height="34" viewBox="0 0 134 34" fill="none" xmlns="http://www.w3.org/2000/svg">
<path d="M30.9419 14.6222L19.1506 2.831C18.343 2.02338 17.2527 1.57919 16.1086 1.57919C14.9645 1.57919 13.8742 2.02338 13.0666 2.831L1.2619 14.6222C-0.420634 16.3048 -0.420634 19.0237 1.2619 20.7063L13.0666 32.4975C13.9011 33.332 15.0049 33.7493 16.1086 33.7493C17.2124 33.7493 18.3161 33.332 19.1506 32.4975L30.9419 20.7063C31.7764 19.8717 32.1937 18.768 32.1937 17.6642C32.1937 16.5605 31.7764 15.4568 30.9419 14.6222ZM29.542 19.3064L17.7508 31.1111C17.3066 31.5553 16.7278 31.7976 16.1086 31.7976C15.4894 31.7976 14.8972 31.5553 14.453 31.1111L2.66177 19.3199C1.74647 18.4046 1.74647 16.9239 2.66177 16.0221L14.453 4.23087C14.8972 3.78668 15.476 3.5444 16.1086 3.5444C16.7278 3.5444 17.32 3.78668 17.7508 4.23087L29.542 16.0221C30.4573 16.9239 30.4573 18.4046 29.542 19.3064Z" fill="url(#paint0_linear)"/>
<path d="M24.7501 5.76532L24.7905 6.77484C27.173 6.76138 27.4556 8.80735 27.1326 10.463C26.4999 13.6531 23.5791 15.5779 18.7064 19.6967C16.5932 21.4869 14.6818 24.6097 16.9566 28.4325C17.845 26.6153 20.5774 24.502 24.8174 20.8408C28.9228 17.2873 30.3092 15.2414 30.4303 11.8494C30.538 8.67274 28.4382 6.12875 24.7501 5.76532Z" fill="url(#paint1_linear)"/>
<path d="M20.2679 14.3799C13.6589 20.114 7.58828 23.1964 7.09025 27.3287C6.67298 30.7342 9.48618 33.0224 12.3801 31.811L13.0532 32.484C8.40936 34.9338 1.55807 31.0169 2.37915 24.1117C3.15984 17.5969 10.1861 13.6127 16.997 8.39009C20.6178 5.61727 22.26 3.69245 21.2505 1.91569C20.7255 0.986929 19.1641 0.717723 17.4816 1.78109C17.0643 1.63302 16.6201 1.56572 16.1625 1.55226C19.1103 -0.978274 22.3273 0.0581687 23.7003 1.3369C25.9077 3.45016 26.8769 8.64584 20.2679 14.3799Z" fill="url(#paint2_linear)"/>
<path d="M16.9836 27.3556C15.4491 23.8963 17.5624 21.3658 19.043 20.114C19.7968 19.4679 20.4967 18.9026 21.1697 18.3372C24.8578 15.2952 27.0788 13.4511 27.6441 10.5706C27.8056 9.74957 27.9402 8.22855 27.0923 7.19211C26.9576 7.03059 26.823 6.89598 26.6615 6.77484C28.7479 7.62284 29.9593 9.4669 29.8785 11.8359C29.7708 14.9587 28.546 16.897 24.4406 20.437C23.7137 21.0697 23.0272 21.6619 22.3811 22.2003C19.8372 24.3944 17.9931 25.9692 16.9836 27.3556Z" fill="url(#paint3_linear)"/>
<path d="M10.0246 32.6859C8.04592 32.6859 6.0538 31.7706 4.69431 30.2361C3.26751 28.6344 2.63488 26.4807 2.91755 24.1925C3.53672 18.9699 8.38243 15.4298 13.9954 11.311C15.0857 10.5168 16.2029 9.68226 17.3201 8.83427C20.9678 6.04798 22.9734 3.86742 21.7216 1.67339C21.3447 1.00037 20.564 0.596564 19.6487 0.583103C19.7968 0.556183 19.9448 0.556183 20.0929 0.556183C21.5331 0.556183 22.7042 1.17536 23.3234 1.75415C24.306 2.68291 24.8578 4.09624 24.8174 5.65764C24.7771 7.54208 23.9021 10.5168 19.9179 13.9626C17.9796 15.6452 16.0548 17.1123 14.3588 18.418C10.213 21.6081 6.92871 24.1252 6.55183 27.2479C6.36338 28.7959 6.76719 30.2092 7.68249 31.2591C8.42281 32.0937 9.40541 32.5782 10.4957 32.659C10.3342 32.6859 10.1861 32.6859 10.0246 32.6859Z" fill="url(#paint4_linear)"/>
<path d="M16.9836 27.3556C15.4491 23.8963 17.5624 21.3658 19.043 20.114C19.7968 19.4679 20.4967 18.9026 21.1697 18.3372C24.8578 15.2952 27.0788 13.4511 27.6441 10.5706C27.8056 9.74957 27.9402 8.22855 27.0923 7.19211C26.9576 7.03059 26.823 6.89598 26.6615 6.77484C28.7479 7.62284 29.9593 9.4669 29.8785 11.8359C29.7708 14.9587 28.546 16.897 24.4406 20.437C23.7137 21.0697 23.0272 21.6619 22.3811 22.2003C19.8372 24.3944 17.9931 25.9692 16.9836 27.3556Z" fill="url(#paint5_linear)"/>
<path d="M10.0246 32.6859C8.04592 32.6859 6.0538 31.7706 4.69431 30.2361C3.26751 28.6344 2.63488 26.4807 2.91755 24.1925C3.53672 18.9699 8.38243 15.4298 13.9954 11.311C15.0857 10.5168 16.2029 9.68226 17.3201 8.83427C20.9678 6.04798 22.9734 3.86742 21.7216 1.67339C21.3447 1.00037 20.564 0.596564 19.6487 0.583103C19.7968 0.556183 19.9448 0.556183 20.0929 0.556183C21.5331 0.556183 22.7042 1.17536 23.3234 1.75415C24.306 2.68291 24.8578 4.09624 24.8174 5.65764C24.7771 7.54208 23.9021 10.5168 19.9179 13.9626C17.9796 15.6452 16.0548 17.1123 14.3588 18.418C10.213 21.6081 6.92871 24.1252 6.55183 27.248C6.36338 28.7959 6.76719 30.2092 7.68249 31.2591C8.42281 32.0937 9.40541 32.5782 10.4957 32.659C10.3342 32.6859 10.1861 32.6859 10.0246 32.6859Z" fill="url(#paint6_linear)"/>
<path d="M52.7596 23.4554L51.5676 20.0999H44.7683L43.5762 23.4554H41.5231L47.0862 8.15697H49.2938L54.8348 23.4554H52.7596ZM45.3422 18.5105H50.9936L48.1679 10.6074L45.3422 18.5105Z" fill="#272338"/>
<path d="M63.5636 21.9322C64.6968 21.9322 65.6608 21.5127 66.4555 20.6739C67.265 19.8203 67.6697 18.7091 67.6697 17.3404C67.6697 15.957 67.265 14.868 66.4555 14.0732C65.6608 13.2785 64.6968 12.8812 63.5636 12.8812C62.4451 12.8812 61.4811 13.2932 60.6717 14.1174C59.877 14.9416 59.4796 16.038 59.4796 17.4067C59.4796 18.7606 59.877 19.8571 60.6717 20.6959C61.4811 21.5201 62.4451 21.9322 63.5636 21.9322ZM63.961 11.1372C65.624 11.1372 67 11.7112 68.0891 12.8591C69.1929 13.9923 69.7448 15.4861 69.7448 17.3404C69.7448 19.1801 69.1929 20.6959 68.0891 21.888C66.9853 23.0654 65.6093 23.6541 63.961 23.6541C62.9308 23.6541 62.0257 23.4112 61.2457 22.9256C60.4804 22.4252 59.8917 21.7776 59.4796 20.9829V23.4554H57.4707V7.11942H59.4796V13.7642C59.8917 12.9842 60.4804 12.3513 61.2457 11.8657C62.0257 11.38 62.9308 11.1372 63.961 11.1372Z" fill="#272338"/>
<path d="M71.8182 14.7576C71.8182 13.7421 72.2376 12.8885 73.0765 12.1968C73.9301 11.4904 75.0265 11.1372 76.3658 11.1372C77.7197 11.1372 78.7794 11.483 79.5446 12.1747C80.3099 12.8517 80.7294 13.7863 80.803 14.9783H78.7278C78.6984 14.3014 78.4703 13.7568 78.0435 13.3447C77.6167 12.9327 77.0207 12.7266 76.2554 12.7266C75.5048 12.7266 74.9088 12.9106 74.4672 13.2785C74.0405 13.6317 73.8271 14.0953 73.8271 14.6693C73.8271 15.2285 74.0699 15.6627 74.5556 15.9718C75.0559 16.2808 75.652 16.5089 76.3437 16.6561C77.0501 16.7886 77.7492 16.9504 78.4409 17.1418C79.1473 17.3184 79.7433 17.6642 80.229 18.1793C80.7294 18.6797 80.9796 19.4008 80.9796 20.3427C80.9796 21.2699 80.5528 22.0573 79.6992 22.7048C78.8603 23.3377 77.7639 23.6541 76.4099 23.6541C75.0559 23.6541 73.9669 23.3156 73.1427 22.6386C72.3333 21.9616 71.8918 21.0271 71.8182 19.835H73.8933C73.9227 20.512 74.1582 21.0565 74.5997 21.4686C75.0559 21.866 75.6741 22.0646 76.4541 22.0646C77.2488 22.0646 77.8669 21.8954 78.3084 21.5569C78.7646 21.2184 78.9928 20.7916 78.9928 20.2765C78.9928 19.7467 78.8162 19.3273 78.4629 19.0182C78.1097 18.7091 77.6682 18.4957 77.1384 18.378C76.6086 18.2603 76.0273 18.1204 75.3944 17.9586C74.7763 17.7967 74.2023 17.6274 73.6725 17.4508C73.1427 17.2595 72.7012 16.9357 72.348 16.4795C71.9948 16.0233 71.8182 15.4493 71.8182 14.7576Z" fill="#272338"/>
<path d="M87.8532 21.8218H89.5089V23.4554H87.4779C85.3734 23.4554 84.3211 22.4178 84.3211 20.3427V12.9695H82.7537V11.3359H84.3211V8.33358H86.3521V11.3359H89.4868V12.9695H86.3521V20.3427C86.3521 20.8873 86.4624 21.2699 86.6832 21.4907C86.9039 21.7114 87.2939 21.8218 87.8532 21.8218Z" fill="#272338"/>
<path d="M93.7357 11.3359V13.3889C94.4568 11.8878 95.6857 11.1372 97.4223 11.1372V13.2344H96.8925C95.8623 13.2344 95.0749 13.5066 94.5304 14.0512C94.0006 14.581 93.7357 15.5082 93.7357 16.8327V23.4554H91.7268V11.3359H93.7357Z" fill="#272338"/>
<path d="M108.088 20.6959C108.898 19.8718 109.303 18.7754 109.303 17.4067C109.303 16.038 108.898 14.9416 108.088 14.1174C107.294 13.2932 106.33 12.8812 105.197 12.8812C104.078 12.8812 103.114 13.2785 102.305 14.0732C101.51 14.868 101.113 15.9497 101.113 17.3184C101.113 18.6871 101.517 19.7982 102.327 20.6518C103.136 21.5054 104.1 21.9322 105.219 21.9322C106.337 21.9322 107.294 21.5201 108.088 20.6959ZM104.843 23.6541C103.195 23.6541 101.819 23.0654 100.715 21.888C99.6114 20.6959 99.0595 19.1801 99.0595 17.3404C99.0595 15.4861 99.6041 13.9923 100.693 12.8591C101.797 11.7112 103.18 11.1372 104.843 11.1372C105.874 11.1372 106.771 11.38 107.537 11.8657C108.317 12.3513 108.905 12.9842 109.303 13.7642V11.3359H111.334V23.4554H109.303V20.9829C108.905 21.7776 108.317 22.4252 107.537 22.9256C106.771 23.4112 105.874 23.6541 104.843 23.6541Z" fill="#272338"/>
<path d="M119.721 23.6541C117.984 23.6541 116.571 23.0801 115.482 21.9322C114.393 20.7842 113.848 19.2757 113.848 17.4067C113.848 15.5229 114.393 14.007 115.482 12.8591C116.571 11.7112 117.984 11.1372 119.721 11.1372C121.178 11.1372 122.362 11.4757 123.275 12.1527C124.202 12.8297 124.85 13.7936 125.217 15.0446H123.054C122.819 14.3382 122.414 13.7863 121.84 13.3889C121.266 12.9915 120.559 12.7929 119.721 12.7929C118.573 12.7929 117.645 13.1976 116.939 14.007C116.247 14.8017 115.902 15.935 115.902 17.4067C115.902 18.8637 116.247 19.9969 116.939 20.8063C117.645 21.601 118.573 21.9984 119.721 21.9984C121.443 21.9984 122.554 21.2478 123.054 19.7467H125.217C124.85 20.9388 124.195 21.888 123.253 22.5944C122.326 23.3009 121.148 23.6541 119.721 23.6541Z" fill="#272338"/>
<path d="M131.854 21.8218H133.509V23.4554H131.478C129.374 23.4554 128.321 22.4178 128.321 20.3427V12.9695H126.754V11.3359H128.321V8.33358H130.352V11.3359H133.487V12.9695H130.352V20.3427C130.352 20.8873 130.463 21.2699 130.684 21.4907C130.904 21.7114 131.294 21.8218 131.854 21.8218Z" fill="#272338"/>
<defs>
<linearGradient id="paint0_linear" x1="20.8124" y1="4.54837" x2="12.037" y2="28.9856" gradientUnits="userSpaceOnUse">
<stop stop-color="#534B78"/>
<stop offset="0.2355" stop-color="#474066"/>
<stop offset="0.7298" stop-color="#302B45"/>
<stop offset="1" stop-color="#272338"/>
</linearGradient>
<linearGradient id="paint1_linear" x1="15.0287" y1="23.666" x2="27.9127" y2="10.1655" gradientUnits="userSpaceOnUse">
<stop stop-color="#11998E"/>
<stop offset="0.9812" stop-color="#38EF7D"/>
</linearGradient>
<linearGradient id="paint2_linear" x1="5.07495" y1="27.0147" x2="24.1796" y2="6.99593" gradientUnits="userSpaceOnUse">
<stop stop-color="#11998E"/>
<stop offset="0.9812" stop-color="#38EF7D"/>
</linearGradient>
<linearGradient id="paint3_linear" x1="10.9519" y1="12.7108" x2="21.6205" y2="16.9782" gradientUnits="userSpaceOnUse">
<stop stop-color="white"/>
<stop offset="1" stop-color="white" stop-opacity="0"/>
</linearGradient>
<linearGradient id="paint4_linear" x1="-9.58611" y1="11.2805" x2="9.80813" y2="15.4966" gradientUnits="userSpaceOnUse">
<stop stop-color="white"/>
<stop offset="1" stop-color="white" stop-opacity="0"/>
</linearGradient>
<linearGradient id="paint5_linear" x1="40.658" y1="18.2111" x2="27.6773" y2="17.4188" gradientUnits="userSpaceOnUse">
<stop stop-color="white"/>
<stop offset="1" stop-color="white" stop-opacity="0"/>
</linearGradient>
<linearGradient id="paint6_linear" x1="33.7557" y1="21.022" x2="19.1905" y2="17.6092" gradientUnits="userSpaceOnUse">
<stop stop-color="white"/>
<stop offset="1" stop-color="white" stop-opacity="0"/>
</linearGradient>
</defs>
</svg>
