<svg width="33" height="34" viewBox="0 0 33 34" fill="none" xmlns="http://www.w3.org/2000/svg">
<path d="M30.9419 14.6222L19.1506 2.831C18.343 2.02338 17.2527 1.57919 16.1086 1.57919C14.9645 1.57919 13.8742 2.02338 13.0666 2.831L1.2619 14.6222C-0.420634 16.3048 -0.420634 19.0237 1.2619 20.7063L13.0666 32.4975C13.9011 33.332 15.0049 33.7493 16.1086 33.7493C17.2124 33.7493 18.3161 33.332 19.1506 32.4975L30.9419 20.7063C31.7764 19.8717 32.1937 18.768 32.1937 17.6642C32.1937 16.5605 31.7764 15.4568 30.9419 14.6222ZM29.542 19.3064L17.7508 31.1111C17.3066 31.5553 16.7278 31.7976 16.1086 31.7976C15.4894 31.7976 14.8972 31.5553 14.453 31.1111L2.66177 19.3199C1.74647 18.4046 1.74647 16.9239 2.66177 16.0221L14.453 4.23087C14.8972 3.78668 15.476 3.5444 16.1086 3.5444C16.7278 3.5444 17.32 3.78668 17.7508 4.23087L29.542 16.0221C30.4573 16.9239 30.4573 18.4046 29.542 19.3064Z" fill="url(#paint0_linear)"/>
<path d="M24.7501 5.76532L24.7905 6.77484C27.173 6.76138 27.4556 8.80735 27.1326 10.463C26.4999 13.6531 23.5791 15.5779 18.7064 19.6967C16.5932 21.4869 14.6818 24.6097 16.9566 28.4325C17.845 26.6153 20.5774 24.5021 24.8174 20.8408C28.9228 17.2873 30.3092 15.2414 30.4303 11.8494C30.538 8.67274 28.4382 6.12875 24.7501 5.76532Z" fill="url(#paint1_linear)"/>
<path d="M20.2679 14.3799C13.6589 20.114 7.58828 23.1964 7.09025 27.3287C6.67298 30.7342 9.48618 33.0224 12.3801 31.811L13.0532 32.484C8.40936 34.9338 1.55807 31.0168 2.37915 24.1117C3.15984 17.5969 10.1861 13.6127 16.997 8.39009C20.6178 5.61727 22.26 3.69245 21.2505 1.91569C20.7255 0.986929 19.1641 0.717723 17.4816 1.78109C17.0643 1.63302 16.6201 1.56572 16.1625 1.55226C19.1103 -0.978274 22.3273 0.0581687 23.7003 1.3369C25.9077 3.45016 26.8769 8.64584 20.2679 14.3799Z" fill="url(#paint2_linear)"/>
<path d="M16.9836 27.3556C15.4491 23.8963 17.5624 21.3658 19.043 20.114C19.7968 19.4679 20.4967 18.9026 21.1697 18.3372C24.8578 15.2952 27.0788 13.4511 27.6441 10.5706C27.8056 9.74957 27.9402 8.22855 27.0922 7.19211C26.9576 7.03059 26.823 6.89598 26.6615 6.77484C28.7479 7.62284 29.9593 9.4669 29.8785 11.8359C29.7708 14.9587 28.546 16.897 24.4406 20.437C23.7137 21.0697 23.0272 21.6619 22.3811 22.2003C19.8372 24.3944 17.9931 25.9692 16.9836 27.3556Z" fill="url(#paint3_linear)"/>
<path d="M10.0246 32.6859C8.04592 32.6859 6.0538 31.7706 4.69431 30.2361C3.26751 28.6344 2.63488 26.4807 2.91755 24.1925C3.53672 18.9699 8.38243 15.4298 13.9954 11.311C15.0857 10.5168 16.2029 9.68226 17.3201 8.83426C20.9678 6.04798 22.9734 3.86742 21.7216 1.67339C21.3447 1.00037 20.564 0.596564 19.6487 0.583103C19.7968 0.556183 19.9448 0.556183 20.0929 0.556183C21.5331 0.556183 22.7042 1.17536 23.3234 1.75415C24.306 2.68291 24.8578 4.09624 24.8174 5.65764C24.7771 7.54208 23.9021 10.5168 19.9179 13.9626C17.9796 15.6452 16.0548 17.1123 14.3588 18.418C10.213 21.6081 6.92871 24.1252 6.55183 27.2479C6.36338 28.7959 6.76719 30.2092 7.68249 31.2591C8.42281 32.0937 9.40541 32.5782 10.4957 32.659C10.3342 32.6859 10.1861 32.6859 10.0246 32.6859Z" fill="url(#paint4_linear)"/>
<path d="M16.9836 27.3556C15.4491 23.8963 17.5624 21.3658 19.043 20.114C19.7968 19.4679 20.4967 18.9026 21.1697 18.3372C24.8578 15.2952 27.0788 13.4511 27.6441 10.5706C27.8056 9.74957 27.9402 8.22855 27.0922 7.19211C26.9576 7.03059 26.823 6.89598 26.6615 6.77484C28.7479 7.62284 29.9593 9.4669 29.8785 11.8359C29.7708 14.9587 28.546 16.897 24.4406 20.437C23.7137 21.0697 23.0272 21.6619 22.3811 22.2003C19.8372 24.3944 17.9931 25.9692 16.9836 27.3556Z" fill="url(#paint5_linear)"/>
<path d="M10.0246 32.6859C8.04592 32.6859 6.0538 31.7706 4.69431 30.2361C3.26751 28.6344 2.63488 26.4807 2.91755 24.1925C3.53672 18.9699 8.38243 15.4298 13.9954 11.311C15.0857 10.5168 16.2029 9.68226 17.3201 8.83426C20.9678 6.04798 22.9734 3.86742 21.7216 1.67339C21.3447 1.00037 20.564 0.596564 19.6487 0.583103C19.7968 0.556183 19.9448 0.556183 20.0929 0.556183C21.5331 0.556183 22.7042 1.17536 23.3234 1.75415C24.306 2.68291 24.8578 4.09624 24.8174 5.65764C24.7771 7.54208 23.9021 10.5168 19.9179 13.9626C17.9796 15.6452 16.0548 17.1123 14.3588 18.418C10.213 21.6081 6.92871 24.1252 6.55183 27.248C6.36338 28.7959 6.76719 30.2092 7.68249 31.2591C8.42281 32.0937 9.40541 32.5782 10.4957 32.659C10.3342 32.6859 10.1861 32.6859 10.0246 32.6859Z" fill="url(#paint6_linear)"/>
<defs>
<linearGradient id="paint0_linear" x1="20.8124" y1="4.54837" x2="12.037" y2="28.9856" gradientUnits="userSpaceOnUse">
<stop stop-color="#534B78"/>
<stop offset="0.2355" stop-color="#474066"/>
<stop offset="0.7298" stop-color="#302B45"/>
<stop offset="1" stop-color="#272338"/>
</linearGradient>
<linearGradient id="paint1_linear" x1="15.0287" y1="23.666" x2="27.9127" y2="10.1655" gradientUnits="userSpaceOnUse">
<stop stop-color="#11998E"/>
<stop offset="0.9812" stop-color="#38EF7D"/>
</linearGradient>
<linearGradient id="paint2_linear" x1="5.07495" y1="27.0147" x2="24.1796" y2="6.99593" gradientUnits="userSpaceOnUse">
<stop stop-color="#11998E"/>
<stop offset="0.9812" stop-color="#38EF7D"/>
</linearGradient>
<linearGradient id="paint3_linear" x1="10.9519" y1="12.7108" x2="21.6205" y2="16.9782" gradientUnits="userSpaceOnUse">
<stop stop-color="white"/>
<stop offset="1" stop-color="white" stop-opacity="0"/>
</linearGradient>
<linearGradient id="paint4_linear" x1="-9.58611" y1="11.2805" x2="9.80813" y2="15.4966" gradientUnits="userSpaceOnUse">
<stop stop-color="white"/>
<stop offset="1" stop-color="white" stop-opacity="0"/>
</linearGradient>
<linearGradient id="paint5_linear" x1="40.658" y1="18.2111" x2="27.6773" y2="17.4188" gradientUnits="userSpaceOnUse">
<stop stop-color="white"/>
<stop offset="1" stop-color="white" stop-opacity="0"/>
</linearGradient>
<linearGradient id="paint6_linear" x1="33.7557" y1="21.022" x2="19.1905" y2="17.6092" gradientUnits="userSpaceOnUse">
<stop stop-color="white"/>
<stop offset="1" stop-color="white" stop-opacity="0"/>
</linearGradient>
</defs>
</svg>
